<svg width="100" height="85" viewBox="0 0 100 85" fill="none" xmlns="http://www.w3.org/2000/svg">
<path d="M17.0049 15.7548C12.4272 23.2618 13.0215 30.8886 13.652 38.9801C14.1116 44.8773 16.123 70.6779 31.3732 76.8996C37.7899 79.5176 48.0303 75.9943 68.2499 68.8417C79.298 64.9331 83.8898 64.859 88.8442 60.7838C94.9781 55.7383 102.17 45.9697 99.3804 38.9798C96.8371 32.6074 88.6065 35.0827 78.3078 27.6041C65.7305 18.4716 69.4839 8.59171 59.6287 2.95655C47.5181 -3.96769 25.5987 1.66111 17.0049 15.7548Z" fill="#E8F5FF"/>
<path d="M34.1584 71.7969C21.6595 64.0345 18.6566 51.1956 18.0839 48.431C15.6617 36.7355 18.3269 19.8618 31.6466 11.6419C41.2907 5.68998 53.5866 6.08616 61.7861 10.1503C65.0477 11.767 65.87 13.076 76.8559 22.579C87.995 32.2147 89.1449 31.5187 90.4188 34.0134C95.747 44.4495 86.4937 65.1638 69.8236 73.2882C68.8315 73.772 50.8452 82.1604 34.1584 71.7969Z" fill="#ECFFF2"/>
<path d="M77.3237 16.1303C76.1116 18.1681 81.6061 24.8001 84.0228 24.0046C85.5242 23.51 86.5615 19.9076 84.8606 17.3732C82.8282 14.345 78.1551 14.7323 77.3237 16.1303Z" fill="#FBF3DA"/>
<path d="M14.0649 11.8903C14.0649 12.5769 13.5028 13.1332 12.809 13.1332C12.1153 13.1332 11.5532 12.5769 11.5532 11.8903C11.5532 11.2038 12.1153 10.6475 12.809 10.6475C13.5027 10.6475 14.0649 11.2038 14.0649 11.8903Z" fill="#FAE3A6"/>
<path d="M18.084 68.3166C18.084 68.8654 17.6339 69.3109 17.0794 69.3109C16.5248 69.3109 16.0747 68.8654 16.0747 68.3166C16.0747 67.7677 16.5248 67.3223 17.0794 67.3223C17.6339 67.3223 18.084 67.7677 18.084 68.3166Z" fill="#FAE3A6"/>
<path d="M2.51163 47.1882C2.51164 47.8747 1.94954 48.4311 1.25582 48.4311C0.562111 48.4311 7.02194e-06 47.8747 4.52328e-06 47.1882C2.02462e-06 46.5016 0.562102 45.9453 1.25581 45.9453C1.94953 45.9453 2.51163 46.5016 2.51163 47.1882Z" fill="#FDF6E2"/>
<path d="M95.4419 62.8478C95.4419 63.3967 94.9918 63.8421 94.4373 63.8421C93.8827 63.8421 93.4326 63.3967 93.4326 62.8478C93.4326 62.299 93.8827 61.8535 94.4373 61.8535C94.9918 61.8535 95.4419 62.299 95.4419 62.8478Z" fill="#10A242"/>
<path d="M71.3297 6.4215C71.3297 6.83364 70.9922 7.16722 70.5762 7.16723C70.1603 7.16723 69.8228 6.83364 69.8228 6.4215C69.8228 6.00937 70.1603 5.67578 70.5762 5.67578C70.9922 5.67578 71.3297 6.00936 71.3297 6.4215Z" fill="#10A242"/>
<path d="M97.9534 17.1104C97.9534 17.3849 97.7288 17.6076 97.4511 17.6076C97.1733 17.6076 96.9487 17.3849 96.9487 17.1104C96.9487 16.836 97.1733 16.6133 97.4511 16.6133C97.7288 16.6133 97.9534 16.836 97.9534 17.1104Z" fill="#10A242"/>
<path d="M9.04165 28.7936C9.04165 29.2057 8.70459 29.5393 8.28816 29.5393C7.87173 29.5393 7.53467 29.2057 7.53467 28.7936C7.53467 28.3814 7.87173 28.0479 8.28816 28.0478C8.70458 28.0478 9.04165 28.3814 9.04165 28.7936Z" fill="#10A242"/>
<path d="M10.046 37.4935C10.046 38.5917 9.1463 39.4821 8.03666 39.4821C6.92702 39.4821 6.02735 38.5917 6.02735 37.4935C6.02735 36.3953 6.92701 35.5049 8.03665 35.5049C9.14628 35.5049 10.046 36.3953 10.046 37.4935Z" fill="#FBF3DA"/>
<path d="M76.3533 12.1389C76.3533 12.9627 75.6787 13.6303 74.8463 13.6304C74.014 13.6304 73.3394 12.9627 73.3394 12.1389C73.3394 11.3151 74.014 10.6475 74.8463 10.6475C75.6787 10.6475 76.3533 11.3151 76.3533 12.1389Z" fill="#FBF3DA"/>
<path d="M7.42864 51.5934C7.95458 54.535 11.3533 56.104 12.256 55.4651C13.6309 54.4912 10.9861 47.1364 9.131 47.2165C8.10576 47.2607 7.06947 49.5859 7.42864 51.5934Z" fill="#FBF3DA"/>
<path d="M63.8441 54.7022L63.844 85.0007L56.0243 79.7601L56.0244 54.7021L63.8441 54.7022Z" fill="#EE4439"/>
<path d="M46.0141 54.7022L46.014 79.7602L38.1932 85.0007L38.1934 54.7021L46.0141 54.7022Z" fill="#EE4439"/>
<path d="M56.0241 54.7012L56.024 79.7597L51.019 76.4025L46.0141 79.7596L46.0142 54.7012L56.0241 54.7012Z" fill="#FFE4E4"/>
<path d="M57.202 7.4069L52.5683 8.8969C51.5716 9.22047 50.4914 9.22048 49.4902 8.90134L44.8609 7.4148C42.8088 6.75587 40.563 7.48021 39.2925 9.20822L36.4335 13.1063C35.8174 13.9496 34.9444 14.5761 33.9472 14.8997L29.3134 16.3941C27.2658 17.0531 25.8756 18.9453 25.8756 21.0825L25.8801 25.9016C25.8801 26.9416 25.5487 27.9566 24.9326 28.8004L22.0736 32.6985C20.8036 34.4265 20.8076 36.7682 22.0776 38.4918L24.9411 42.3898C25.5612 43.2337 25.8926 44.2447 25.8926 45.2887L25.8966 50.1039C25.901 52.241 27.2908 54.1332 29.3428 54.7917L33.9726 56.2782C34.9738 56.5974 35.8463 57.2238 36.4669 58.0677L39.3299 61.9618C40.5999 63.6893 42.8462 64.4097 44.8983 63.7513L49.5276 62.2563C50.5288 61.9367 51.605 61.9323 52.6062 62.2563L57.239 63.7424C59.2915 64.4018 61.5378 63.6765 62.8039 61.949L65.6623 58.0469C66.2829 57.2036 67.1519 56.5771 68.1531 56.2535L72.7824 54.763C74.8345 54.0997 76.2247 52.2084 76.2202 50.0713L76.2162 45.2517C76.2162 44.2116 76.5511 43.1962 77.1677 42.3572L80.0262 38.4547C81.2922 36.7272 81.2922 34.389 80.0227 32.661L77.1598 28.7634C76.5392 27.924 76.2038 26.9085 76.2038 25.8685L76.1998 21.0494C76.1998 18.9118 74.8095 17.0205 72.7575 16.3655L68.1237 14.879C67.1225 14.5554 66.254 13.9289 65.6334 13.09L62.7704 9.19192C61.8155 7.89273 60.306 7.16298 58.7448 7.16299C58.2301 7.16299 57.7098 7.24216 57.202 7.4069Z" fill="url(#paint0_linear_5_5932)"/>
<path d="M30.3145 35.9447C30.3145 46.9382 39.3585 55.8885 50.4665 55.8885C61.5749 55.8884 70.6184 46.9381 70.6184 35.9446C70.6183 24.9512 61.5748 16.0009 50.4664 16.0009C39.3584 16.001 30.3145 24.9513 30.3145 35.9447Z" fill="url(#paint1_linear_5_5932)"/>
<path d="M50.4665 14.6533C38.5829 14.6533 28.9536 24.1834 28.9537 35.9445C28.9537 47.7061 38.583 57.2356 50.4666 57.2356C62.3501 57.2355 71.9794 47.706 71.9794 35.9444C71.9793 24.1833 62.35 14.6532 50.4665 14.6533ZM50.4666 55.1501C39.77 55.1501 31.0609 46.5313 31.0609 35.9445C31.0609 25.3581 39.7699 16.7393 50.4665 16.7393C61.1635 16.7392 69.8721 25.358 69.8721 35.9444C69.8722 46.5312 61.1636 55.15 50.4666 55.1501Z" fill="white"/>
<path d="M50.4666 13.8349C38.1259 13.8349 28.1265 23.7309 28.1265 35.9444C28.1266 48.1584 38.126 58.0548 50.4667 58.0547C62.8074 58.0547 72.8068 48.1583 72.8068 35.9443C72.8068 23.7308 62.8073 13.8349 50.4666 13.8349ZM50.4667 55.8886C39.3587 55.8886 30.3148 46.9384 30.3147 35.9444C30.3147 24.9509 39.3586 16.0011 50.4666 16.001C61.5751 16.001 70.6186 24.9508 70.6186 35.9443C70.6186 46.9383 61.5752 55.8886 50.4667 55.8886Z" fill="#0B662A"/>
<path d="M63.2187 33.0581L45.3951 47.3921C44.7173 47.9374 43.7221 47.8425 43.1621 47.1791L36.76 39.5934C35.9586 38.6439 36.0872 37.2311 37.0472 36.4394C38.0066 35.6486 39.4327 35.7775 40.2316 36.7275L43.7604 40.9217C44.3198 41.587 45.3156 41.6834 45.9943 41.137L60.3642 29.5815C61.3341 28.8016 62.7591 28.9476 63.5471 29.9075C64.3357 30.8674 64.1886 32.2782 63.2187 33.0581Z" fill="#17AC4A"/>
<path d="M63.2187 31.4204L45.3951 45.7544C44.7173 46.2997 43.7221 46.2048 43.1621 45.5414L36.76 37.9557C35.9586 37.0062 36.0872 35.5934 37.0472 34.8017C38.0066 34.011 39.4327 34.1398 40.2316 35.0898L43.7604 39.284C44.3198 39.9493 45.3156 40.0457 45.9943 39.4993L60.3642 27.9438C61.3341 27.1639 62.7591 27.3099 63.5471 28.2698C64.3357 29.2297 64.1886 30.6405 63.2187 31.4204Z" fill="white"/>
<defs>
<linearGradient id="paint0_linear_5_5932" x1="50.1605" y1="10.502" x2="50.9256" y2="60.1686" gradientUnits="userSpaceOnUse">
<stop stop-color="#3EEA79"/>
<stop offset="0.48" stop-color="#27D763"/>
<stop offset="1" stop-color="#10A242"/>
</linearGradient>
<linearGradient id="paint1_linear_5_5932" x1="50.5141" y1="15.2913" x2="51.0359" y2="56.3523" gradientUnits="userSpaceOnUse">
<stop stop-color="#23BD59"/>
<stop offset="0.48" stop-color="#128339"/>
<stop offset="1" stop-color="#065622"/>
</linearGradient>
</defs>
</svg>
